<?xml version="1.0" standalone="no"?>
<!DOCTYPE svg PUBLIC "-//W3C//DTD SVG 20010904//EN"
 "http://www.w3.org/TR/2001/REC-SVG-20010904/DTD/svg10.dtd">
<svg version="1.0" xmlns="http://www.w3.org/2000/svg"
 width="256.000000pt" height="256.000000pt" viewBox="0 0 256.000000 256.000000"
 preserveAspectRatio="xMidYMid meet">
<metadata>
Created by potrace 1.14, written by Peter Selinger 2001-2017
</metadata>
<g transform="translate(0.000000,256.000000) scale(0.100000,-0.100000)"
fill="#000000" stroke="none">
<path d="M1133 2504 c-11 -28 19 -34 157 -32 132 3 135 4 138 26 3 22 3 22
-143 22 -124 0 -147 -2 -152 -16z"/>
<path d="M1523 2264 c-2 -245 -1 -252 18 -247 19 5 23 -2 20 -37 0 -11 1 -11
5 -2 5 10 9 10 22 0 13 -11 15 -10 9 5 -4 10 -7 30 -7 43 0 20 -5 24 -30 24
l-30 0 -3 233 -3 232 -1 -251z"/>
<path d="M1147 2431 c-6 -2 -27 -20 -45 -39 -30 -31 -33 -39 -30 -86 3 -50 4
-51 36 -54 17 -2 32 -6 32 -9 0 -3 -16 -23 -35 -44 -29 -32 -35 -47 -35 -82 0
-23 4 -48 8 -55 7 -9 55 -12 208 -10 l199 3 3 55 c3 52 1 57 -33 90 -19 18
-35 37 -35 41 0 4 15 9 33 11 31 3 32 4 35 58 3 51 0 58 -31 88 l-34 33 -131
2 c-73 1 -138 0 -145 -2z"/>
<path d="M983 2010 c2 -36 3 -39 16 -23 9 13 15 14 18 6 6 -18 20 -16 20 1 0
8 -3 15 -6 14 -22 -2 -41 4 -41 12 0 6 11 8 25 4 19 -5 25 -2 25 10 0 11 -9
16 -30 16 -28 0 -30 -2 -27 -40z"/>
<path d="M1116 1973 c-3 -4 -6 -26 -6 -50 l0 -44 108 3 107 3 1 35 c2 58 1 59
-106 59 -54 0 -101 -3 -104 -6z"/>
<path d="M1377 1962 c-34 -37 -15 -82 33 -82 32 0 50 17 50 46 0 48 -52 70
-83 36z"/>
<path d="M616 1903 l-36 -37 0 -137 0 -137 40 -36 c34 -30 47 -36 85 -36 47 0
48 1 60 53 l6 29 45 -42 c41 -38 49 -41 92 -38 l47 3 3 208 2 207 -59 0 c-56
0 -60 -2 -95 -40 l-36 -40 -6 40 -7 40 -52 0 c-48 0 -56 -4 -89 -37z"/>
<path d="M1607 1933 c-9 -8 -9 -376 -1 -397 4 -12 20 -16 55 -16 44 0 54 5 94
41 l44 40 3 -38 c3 -38 3 -38 52 -41 46 -3 52 -1 93 39 l43 43 0 128 0 128
-36 40 c-35 38 -39 40 -95 40 l-59 0 0 -35 c0 -19 -4 -35 -8 -35 -4 0 -22 16
-41 35 -29 31 -38 35 -85 35 -29 0 -56 -3 -59 -7z"/>
<path d="M464 1780 c0 -85 2 -120 3 -77 2 42 2 112 0 155 -1 42 -3 7 -3 -78z"/>
<path d="M502 1878 c-13 -13 -18 -251 -6 -282 3 -9 15 -16 25 -16 19 0 19 8
17 152 -3 149 -9 173 -36 146z"/>
<path d="M2032 1878 c-8 -8 -12 -57 -12 -149 0 -119 2 -138 17 -143 27 -11 33
13 33 150 0 97 -3 134 -13 143 -10 8 -17 7 -25 -1z"/>
<path d="M1064 1815 c-3 -7 -4 -28 -2 -47 l3 -33 218 -3 217 -2 0 49 0 50
-216 0 c-171 0 -216 -3 -220 -14z"/>
<path d="M1077 1673 c-4 -3 -7 -26 -7 -50 0 -35 6 -50 36 -83 l36 -40 139 0
138 0 35 38 c32 33 36 43 36 90 l0 52 -203 0 c-112 0 -207 -3 -210 -7z"/>
<path d="M463 1550 c0 -25 2 -35 4 -22 2 12 2 32 0 45 -2 12 -4 2 -4 -23z"/>
<path d="M980 1454 c0 -29 3 -35 16 -30 9 3 22 6 30 6 8 0 14 4 14 9 0 4 -12
6 -26 3 -25 -4 -26 -3 -20 22 4 15 2 26 -4 26 -5 0 -10 -16 -10 -36z"/>
<path d="M1526 1462 c3 -30 14 -42 14 -15 0 27 10 35 27 22 9 -9 13 -8 13 0 0
6 -3 11 -7 12 -5 0 -17 2 -29 3 -17 2 -20 -2 -18 -22z"/>
<path d="M1550 1445 c0 -16 16 -20 24 -6 3 5 -1 11 -9 15 -9 3 -15 0 -15 -9z"/>
<path d="M1077 1404 c-4 -4 -7 -27 -7 -51 0 -37 6 -50 40 -87 43 -46 42 -56
-1 -56 -30 0 -39 -15 -39 -66 0 -25 9 -44 36 -74 l36 -40 138 0 138 0 36 36
c32 32 36 41 36 90 l0 54 -35 0 c-19 0 -35 4 -35 8 0 4 16 24 35 42 34 33 36
38 33 90 l-3 55 -201 3 c-110 1 -203 -1 -207 -4z"/>
<path d="M1523 1040 c0 -47 2 -66 4 -42 2 23 2 61 0 85 -2 23 -4 4 -4 -43z"/>
<path d="M1147 983 c-4 -3 -7 -12 -7 -20 0 -10 31 -13 145 -13 138 0 145 1
145 20 0 19 -7 20 -138 20 -76 0 -142 -3 -145 -7z"/>
<path d="M1927 666 c-82 -30 -117 -87 -117 -191 0 -114 45 -177 142 -197 47
-10 63 -9 114 8 51 16 59 23 62 47 4 33 0 33 -39 5 -42 -31 -146 -33 -179 -3
-36 33 -53 75 -53 139 0 65 15 107 53 141 33 30 133 28 177 -2 39 -29 43 -29
43 3 0 19 -8 28 -36 40 -53 22 -123 26 -167 10z"/>
<path d="M130 476 c0 -189 1 -196 20 -196 18 0 20 7 20 75 l0 75 43 1 c70 1
119 21 144 58 39 58 23 133 -34 161 -15 7 -65 15 -110 18 l-83 5 0 -197z m174
133 c35 -28 36 -80 1 -114 -20 -21 -34 -25 -80 -25 l-55 0 0 73 c0 41 3 77 7
80 15 16 101 7 127 -14z"/>
<path d="M460 475 c0 -188 1 -195 20 -195 18 0 20 7 20 80 l0 80 43 0 c40 0
44 -3 107 -80 53 -65 70 -80 93 -80 15 0 27 2 27 4 0 3 -31 42 -70 87 l-70 83
27 17 c80 53 66 163 -25 189 -20 5 -67 10 -104 10 l-68 0 0 -195z m180 135
c28 -28 26 -75 -5 -105 -20 -21 -34 -25 -80 -25 l-55 0 0 75 0 75 60 0 c47 0
64 -4 80 -20z"/>
<path d="M840 475 l0 -195 125 0 c118 0 125 1 125 20 0 19 -7 20 -105 20
l-105 0 0 80 0 80 105 0 c98 0 105 1 105 20 0 19 -7 20 -105 20 l-105 0 0 55
0 55 105 0 c98 0 105 1 105 20 0 19 -7 20 -125 20 l-125 0 0 -195z"/>
<path d="M1180 475 l0 -198 94 5 c165 9 230 68 224 204 -6 126 -62 172 -224
181 l-94 6 0 -198z m200 136 c49 -26 71 -69 71 -136 0 -105 -54 -155 -168
-155 l-63 0 0 155 0 155 63 0 c42 0 74 -6 97 -19z"/>
<path d="M1580 650 c0 -15 7 -20 25 -20 l25 0 0 -155 0 -155 -25 0 c-18 0 -25
-5 -25 -20 0 -18 7 -20 75 -20 68 0 75 2 75 20 0 15 -7 20 -25 20 l-25 0 0
155 0 155 25 0 c18 0 25 5 25 20 0 18 -7 20 -75 20 -68 0 -75 -2 -75 -20z"/>
<path d="M2160 650 c0 -18 7 -20 70 -20 l70 0 0 -175 c0 -168 1 -175 20 -175
19 0 20 7 20 175 l0 175 70 0 c63 0 70 2 70 20 0 19 -7 20 -160 20 -153 0
-160 -1 -160 -20z"/>
</g>
</svg>
